<svg width="30" height="30" viewBox="0 0 30 30" fill="none" xmlns="http://www.w3.org/2000/svg">
<path fill-rule="evenodd" clip-rule="evenodd" d="M15.9407 8.72664C15.4427 9.29583 14.5573 9.29583 14.0593 8.72664L13.1185 7.65146C12.2194 6.62379 10.812 5.95483 9.375 5.95483C6.8571 5.95483 5 7.8387 5 10.1987C5 11.633 5.54759 13.1873 6.56965 14.8131C7.58662 16.4309 8.98425 17.9763 10.4528 19.3424C11.9127 20.7005 13.3835 21.8268 14.4943 22.6156C14.6733 22.7427 14.8425 22.8607 15 22.969C15.1575 22.8607 15.3267 22.7427 15.5057 22.6156C16.6165 21.8268 18.0873 20.7005 19.5472 19.3424C21.0157 17.9763 22.4134 16.4309 23.4303 14.8131C24.4524 13.1873 25 11.633 25 10.1987C25 7.8387 23.1429 5.95483 20.625 5.95483C19.188 5.95483 17.7806 6.62379 16.8815 7.65146L15.9407 8.72664ZM13.5531 4.73925C12.3431 3.93037 10.88 3.45483 9.375 3.45483C5.525 3.45483 2.5 6.40988 2.5 10.1987C2.5 18.4548 15 25.9548 15 25.9548C15 25.9548 27.5 18.4548 27.5 10.1987C27.5 6.40988 24.475 3.45483 20.625 3.45483C19.12 3.45483 17.6569 3.93037 16.4469 4.73925C15.9082 5.09936 15.4197 5.52554 15 6.00524C14.5803 5.52554 14.0918 5.09936 13.5531 4.73925Z" fill="#FF6871"/>
</svg>
